<svg width="44" height="44" viewBox="0 0 44 44" fill="none" xmlns="http://www.w3.org/2000/svg">
<rect x="1" y="1" width="42" height="42" rx="10" stroke="#57A64A" stroke-width="2"/>
<path d="M31.12 22.68C32.2021 22.68 33.2398 23.1099 34.005 23.875C34.7701 24.6402 35.2 25.6779 35.2 26.76V28.12C35.2 33.4811 30.1408 39 21.6 39C13.0592 39 8 33.4811 8 28.12V26.76C8 25.6779 8.42986 24.6402 9.195 23.875C9.96015 23.1099 10.9979 22.68 12.08 22.68H31.12ZM21.6 5C23.5838 5 25.4864 5.78807 26.8892 7.19084C28.2919 8.59361 29.08 10.4962 29.08 12.48C29.08 14.4638 28.2919 16.3664 26.8892 17.7692C25.4864 19.1719 23.5838 19.96 21.6 19.96C19.6162 19.96 17.7136 19.1719 16.3108 17.7692C14.9081 16.3664 14.12 14.4638 14.12 12.48C14.12 10.4962 14.9081 8.59361 16.3108 7.19084C17.7136 5.78807 19.6162 5 21.6 5Z" fill="#57A64A"/>
</svg>
