<svg width="42" height="42" viewBox="0 0 42 42" fill="none" xmlns="http://www.w3.org/2000/svg">
<rect x="1" y="1" width="40" height="40" rx="9" stroke="#57A64A" stroke-width="2"/>
<path d="M8.2 36.4C7.32 36.4 6.56693 36.0869 5.9408 35.4608C5.31467 34.8347 5.00107 34.0811 5 33.2V15.6C5 14.72 5.3136 13.9669 5.9408 13.3408C6.568 12.7147 7.32107 12.4011 8.2 12.4H14.6V9.2C14.6 8.32 14.9136 7.56693 15.5408 6.9408C16.168 6.31467 16.9211 6.00107 17.8 6H24.2C25.08 6 25.8336 6.3136 26.4608 6.9408C27.088 7.568 27.4011 8.32107 27.4 9.2V12.4H33.8C34.68 12.4 35.4336 12.7136 36.0608 13.3408C36.688 13.968 37.0011 14.7211 37 15.6V33.2C37 34.08 36.6869 34.8336 36.0608 35.4608C35.4347 36.088 34.6811 36.4011 33.8 36.4H8.2ZM17.8 12.4H24.2V9.2H17.8V12.4Z" fill="#57A64A"/>
</svg>
