<svg width="44" height="44" viewBox="0 0 44 44" fill="none" xmlns="http://www.w3.org/2000/svg">
<rect x="1" y="1" width="42" height="42" rx="10" stroke="#57A64A" stroke-width="2"/>
<path d="M19.35 5.3554C19.5155 5.2536 19.7059 5.1997 19.9002 5.1997C20.0945 5.1997 20.2849 5.2536 20.4504 5.3554L33.1008 13.1401C33.2478 13.2311 33.3843 13.3312 33.5103 13.4404L19.9002 21.8173L6.2901 13.4404C6.4161 13.3312 6.5526 13.2311 6.6996 13.1401L19.35 5.3554ZM34.5519 15.2674C34.5841 15.4494 34.6002 15.6349 34.6002 15.8239V27.25C34.6002 28.6424 34.0471 29.9777 33.0625 30.9623C32.0779 31.9469 30.7426 32.5 29.3502 32.5H10.4502C9.05781 32.5 7.72245 31.9469 6.73788 30.9623C5.75332 29.9777 5.2002 28.6424 5.2002 27.25V15.8239C5.2002 15.6335 5.217 15.448 5.2506 15.2674L19.35 23.9446C19.5155 24.0464 19.7059 24.1003 19.9002 24.1003C20.0945 24.1003 20.2849 24.0464 20.4504 23.9446L34.5519 15.2674ZM10.4502 34.6C11.4078 35.8747 12.9324 36.7 14.6502 36.7H30.4002C32.628 36.7 34.7646 35.815 36.3399 34.2397C37.9152 32.6644 38.8002 30.5278 38.8002 28.3V17.9239C38.8003 17.3857 38.6626 16.8565 38.4001 16.3867C38.1376 15.9168 37.7592 15.5221 37.3008 15.2401L36.6015 14.8096C36.6673 15.1428 36.7002 15.4809 36.7002 15.8239V28.3C36.7002 29.9709 36.0364 31.5733 34.855 32.7548C33.6735 33.9363 32.0711 34.6 30.4002 34.6H10.4502Z" fill="#57A64A"/>
</svg>
